<svg width="180" height="180" viewBox="0 0 180 180" fill="none" xmlns="http://www.w3.org/2000/svg">
<path d="M180 0C180 60 180 120 180 180C120 180 60 180 0 180C0 120 0 60 0 0C60 0 120 0 180 0ZM140.744 155.857C144.516 154.911 148.228 153.361 151.077 150.716C155.575 146.54 157.391 140.026 156.919 133.907C156.734 131.516 156.228 129.133 155.237 126.95C153.098 122.237 148.861 118.781 144.334 116.273C139.807 113.764 134.889 112.038 130.272 109.7C127.944 108.522 125.533 107.004 124.617 104.561C123.63 101.926 124.812 98.7492 127.101 97.1128C129.39 95.4765 132.548 95.3117 135.156 96.3675C137.764 97.4234 139.833 99.5803 141.143 102.071C144.707 99.8155 148.272 97.5603 151.837 95.3051C152.071 95.157 152.324 94.9828 152.389 94.7133C152.448 94.465 152.327 94.2128 152.205 93.9886C149.739 89.4525 145.475 85.9857 140.626 84.2128C135.777 82.4399 130.386 82.3192 125.379 83.5766C122.651 84.2615 120.007 85.3553 117.714 86.9837C112.822 90.458 109.803 96.3621 109.655 102.361C109.507 108.359 112.171 114.33 116.602 118.376C122.297 123.576 130.229 125.412 136.934 129.221C139.236 130.529 141.565 132.309 142.158 134.889C142.681 137.162 141.654 139.613 139.921 141.173C138.188 142.733 135.851 143.491 133.529 143.71C127.019 144.322 120.312 140.621 117.361 134.786C113.348 137.018 109.379 139.329 105.458 141.717C108.415 147.91 114.046 152.66 120.481 155.043C126.917 157.425 134.087 157.526 140.744 155.857ZM82.3971 83.9803C82.4037 100.407 82.4103 116.833 82.4169 133.26C82.4179 135.795 82.3729 138.492 80.9854 140.614C79.197 143.349 75.4175 144.376 72.2893 143.432C69.161 142.488 66.7216 139.874 65.4137 136.879C65.0948 136.149 63.9988 136.455 63.3205 136.872C59.8196 139.028 56.3187 141.184 52.8178 143.34C54.9915 148.606 59.4615 152.797 64.7152 155.001C69.9688 157.204 75.9402 157.483 81.4851 156.175C85.579 155.209 89.5759 153.32 92.3371 150.147C94.7022 147.429 96.023 143.929 96.6592 140.383C97.2955 136.837 97.2901 133.211 97.2829 129.608C97.2522 114.351 97.2214 99.0952 97.1907 83.839C92.2596 83.733 87.3253 83.7802 82.3971 83.9803Z" fill="#F7EE03"/>
</svg>
