<svg width="180" height="162" viewBox="0 0 180 162" fill="none" xmlns="http://www.w3.org/2000/svg">
<path d="M80.3961 94.0695C78.9218 92.9875 77.6326 91.654 76.6011 90.144C76.2893 89.6877 76.001 89.2154 75.7374 88.7296C75.4276 88.1585 75.1522 87.5687 74.9131 86.9645C72.6375 81.2139 74.0277 74.1913 78.3226 69.7413C82.6174 65.2913 89.5862 63.6529 95.414 65.723C101.242 67.7931 105.615 73.4606 106.141 79.6227C106.666 85.7849 103.314 92.1108 97.9211 95.1373C92.5277 98.1638 85.3821 97.7284 80.3961 94.0695Z" fill="#15E8E8"/>
<path d="M145.146 23.6867C145.825 32.7751 144.762 41.9905 142.032 50.6857C151.538 52.8825 160.583 57.0515 168.428 62.8518C174.069 67.0224 179.41 72.6786 179.954 79.6728C180.643 88.5356 173.467 96.0257 166.025 100.888C158.708 105.667 150.584 109.205 142.101 111.306C144.641 121.217 146.345 131.547 144.85 141.669C143.765 149.015 140.384 156.765 133.611 159.812C127.723 162.461 120.809 160.883 114.835 158.435C105.418 154.577 96.8629 148.633 89.9608 141.155C83.9475 147.446 76.8993 152.745 69.1862 156.774C62.1109 160.471 53.5028 163.072 46.2845 159.664C37.172 155.36 34.4941 143.661 34.6411 133.584C34.7521 125.98 35.835 118.39 37.8552 111.058C28.8485 109 20.2367 105.227 12.6171 100.003C6.54463 95.8385 0.73162 90.0469 0.063117 82.7142C-0.620035 75.221 4.33938 68.2813 10.2397 63.6121C18.2767 57.2519 28.1753 53.7958 37.9158 50.6069C34.7926 41.1539 33.8505 30.9876 35.1834 21.1216C36.0985 14.3479 38.4759 7.15563 44.1996 3.4192C49.8747 -0.285518 57.42 0.398609 63.7839 2.7292C73.7982 6.39659 82.0783 13.5554 90.1141 20.5669C98.4172 12.9244 107.356 5.42107 118.143 2.10616C123.427 0.482272 129.383 -0.015434 134.313 2.48514C141.721 6.24238 144.527 15.4035 145.146 23.6867ZM58.1641 79.5354C57.9433 79.9844 57.7198 80.4502 57.6962 80.95C57.6667 81.5755 57.9527 82.1677 58.2337 82.7273C62.5752 91.374 67.4131 99.7715 72.7156 107.865C73.043 108.364 73.3894 108.88 73.9023 109.186C74.4753 109.528 75.1743 109.561 75.8411 109.584C85.4061 109.908 94.9826 109.896 104.547 109.548C105.071 109.529 105.618 109.503 106.075 109.244C106.512 108.996 106.81 108.565 107.091 108.148C112.81 99.6648 117.919 90.7696 122.364 81.5544C122.67 80.9211 122.355 80.1768 122.04 79.5477C117.382 70.2275 112.127 61.206 106.316 52.5569C95.9759 52.0616 85.6129 52.033 75.2697 52.4712C74.9063 52.4865 74.5316 52.5052 74.2033 52.6616C73.772 52.867 73.4825 53.2785 73.214 53.6735C67.6026 61.9292 62.5696 70.578 58.1641 79.5354ZM45.6161 113.594C43.5539 120.791 42.5636 128.294 42.688 135.779C42.7508 139.195 43.0304 142.676 44.3383 145.832C45.6463 148.988 48.1313 151.809 51.4049 152.786C52.2495 152.983 53.1178 153.075 53.9842 153.107C55.9528 153.234 57.926 152.943 59.8498 152.508C69.4105 150.249 78.1899 144.16 82.8565 135.518C83.017 135.252 83.139 134.961 83.1132 134.662C83.0507 134.166 82.6212 133.817 82.2405 133.497C77.0333 128.765 72.7232 123.056 69.5938 116.757C69.3862 116.273 68.7229 116.332 68.2099 116.402C60.9146 116.947 53.4969 115.902 46.646 113.332C46.4307 113.244 46.2204 113.085 45.9934 113.131C45.7834 113.165 45.6738 113.389 45.62 113.593L45.6161 113.594ZM46.0396 12.4206C45.5844 13.0174 45.2123 13.6738 44.8817 14.3477C42.8005 18.5911 42.3789 23.4531 42.4252 28.1791C42.4925 35.0311 43.4735 41.8737 45.3342 48.4686C45.393 48.6767 45.5297 48.9349 45.7412 48.8899C53.3033 47.28 60.9575 46.103 68.6539 45.3667C69.0475 45.329 69.4928 45.2638 69.7179 44.9387C73.9832 38.7785 78.6636 32.9056 83.7167 27.3732C83.9481 27.1199 84.1933 26.8373 84.2094 26.4946C84.2297 26.0622 83.8834 25.7106 83.5633 25.4193C77.1727 19.6041 70.5272 13.7885 62.5427 10.4866C59.7853 9.34623 56.8344 8.51394 53.8542 8.66212C50.8739 8.8103 47.8495 10.0482 46.0396 12.4206ZM137.466 24.9939C137.349 21.9946 137.04 18.9568 135.945 16.1621C134.85 13.3674 132.882 10.8129 130.159 9.54916C126.561 7.87919 122.301 8.68868 118.591 10.0921C110.048 13.3238 102.91 19.3931 96.2533 25.648C96.0579 25.8316 95.8534 26.031 95.7917 26.292C95.6892 26.7257 96.0108 27.1343 96.3092 27.4654C101.299 33.0034 105.963 38.8349 110.269 44.9197C110.574 45.351 111.172 45.4279 111.699 45.4694C119.373 46.0731 127.003 47.2354 134.509 48.944C136.778 41.1901 137.781 33.067 137.466 24.9939ZM118.076 151.726C121.947 153.277 126.439 154.2 130.208 152.415C132.959 151.113 134.933 148.505 136.019 145.662C137.105 142.819 137.39 139.736 137.483 136.694C137.728 128.72 136.716 120.709 134.497 113.046C127.054 114.652 119.514 115.817 111.933 116.531C111.398 116.581 110.832 116.641 110.403 116.966C110.158 117.151 109.98 117.409 109.805 117.662C105.738 123.54 101.265 129.137 96.4282 134.399C96.0666 134.792 95.675 135.296 95.837 135.805C95.9155 136.052 96.1121 136.24 96.3016 136.416C102.835 142.497 109.791 148.407 118.076 151.726ZM140.44 58.407C140.248 58.3437 140.104 58.5822 140.042 58.7746C137.687 66.0762 134.883 73.2327 131.649 80.1897C131.336 80.863 131.649 81.6465 131.956 82.3226C134.981 88.9858 137.612 95.8277 139.83 102.801C140.025 103.413 140.908 103.339 141.518 103.138C151.076 99.993 161.024 96.6116 168.068 89.4267C169.826 87.6339 171.413 85.5384 171.934 83.0823C172.461 80.5973 171.824 77.962 170.563 75.7566C169.302 73.5513 167.457 71.7336 165.478 70.141C158.256 64.3293 149.243 61.3122 140.44 58.407ZM8.35225 84.2337C8.76097 85.3836 9.42097 86.4291 10.156 87.4034C13.5066 91.8449 18.3897 94.8713 23.378 97.335C28.6391 99.9335 34.1508 102.024 39.8117 103.569C42.2356 96.1632 45.0848 88.897 48.3405 81.8177C48.6347 81.1782 48.3374 80.4365 48.0459 79.7958C44.9958 73.0929 42.3368 66.2122 40.0869 59.2001C39.8692 58.5216 38.888 58.6117 38.2135 58.8415C30.0815 61.6127 21.7872 64.4692 14.9766 69.7061C12.7174 71.4432 10.6135 73.4704 9.26574 75.9814C7.91801 78.4923 7.39787 81.5484 8.35225 84.2337ZM132.312 57.0072C132.347 56.8906 132.383 56.7623 132.336 56.6498C132.271 56.4939 132.082 56.4389 131.917 56.403C126.88 55.3084 121.795 54.4373 116.682 53.7931C116.518 54.0185 116.667 54.3308 116.816 54.5664C120.377 60.1881 123.722 65.9473 126.839 71.8267C128.934 66.9926 130.762 62.0427 132.312 57.0072ZM47.6398 105.013C47.5466 105.311 47.9085 105.536 48.2062 105.628C49.1875 105.929 50.2038 106.098 51.2165 106.267C55.268 106.94 59.3195 107.613 63.371 108.286C63.2827 107.843 63.0439 107.446 62.8098 107.06C59.4518 101.515 56.2336 95.8852 53.1594 90.178C51.0621 95.0222 49.2188 99.9764 47.6398 105.013ZM48.4355 56.1856C48.1479 56.248 47.8301 56.3317 47.6743 56.5813C47.4956 56.8675 47.6087 57.2387 47.7261 57.555C49.3285 61.8717 50.9309 66.1884 52.5334 70.5052C52.6235 70.7479 52.7238 71.0045 52.932 71.1582C53.1403 71.312 53.4912 71.2998 53.608 71.0687C56.5961 65.1578 59.8712 59.3919 63.4179 53.7983C63.2196 53.6708 62.9635 53.6956 62.7297 53.7256C57.9325 54.3398 53.1619 55.1608 48.4355 56.1856ZM126.658 90.7511C126.483 90.8053 126.383 90.9834 126.3 91.1463C123.297 97.0279 120.023 102.771 116.493 108.352C121.581 107.772 126.638 106.911 131.631 105.775C131.83 105.73 132.04 105.679 132.186 105.536C132.495 105.235 132.365 104.722 132.213 104.318C130.597 100.001 128.98 95.6846 127.363 91.3678C127.242 91.0435 126.988 90.6485 126.658 90.7511ZM99.8855 117.683C93.2285 117.688 86.5715 117.692 79.9146 117.696C82.7998 121.692 85.9296 125.51 89.2809 129.124C89.4991 129.359 89.7753 129.614 90.0918 129.562C90.3045 129.526 90.4668 129.358 90.6125 129.2C93.9252 125.587 97.0606 121.811 100.003 117.891C100.055 117.963 100.172 117.844 100.126 117.768C100.08 117.692 99.9745 117.683 99.8855 117.683ZM100.125 44.2853C97.1497 40.3103 93.9869 36.4756 90.6508 32.7981C90.4985 32.6301 90.3284 32.4527 90.1047 32.4157C89.7738 32.3611 89.486 32.6296 89.2593 32.8768C85.9359 36.4998 82.8163 40.3098 79.9202 44.2828C86.6551 44.3225 93.3902 44.3233 100.125 44.2853Z" fill="#15E8E8"/>
</svg>
